inDegrees=yes
name=lift_l_res.mot
DataType=double
version=3
OpenSimVersion=4.4-2022-07-23-0e9fedc
endheader
time	pelvis_tilt	pelvis_list	pelvis_rotation	pelvis_tx	pelvis_ty	pelvis_tz	hip_flexion_r	hip_adduction_r	hip_rotation_r	knee_angle_r	knee_angle_r_beta	ankle_angle_r	subtalar_angle_r	mtp_angle_r	hip_flexion_l	hip_adduction_l	hip_rotation_l	knee_angle_l	knee_angle_l_beta	ankle_angle_l	subtalar_angle_l	mtp_angle_l	lumbar_extension	lumbar_bending	lumbar_rotation	arm_flex_r	arm_add_r	arm_rot_r	elbow_flex_r	pro_sup_r	wrist_flex_r	wrist_dev_r	arm_flex_l	arm_add_l	arm_rot_l	elbow_flex_l	pro_sup_l	wrist_flex_l	wrist_dev_l
50	-0.9276999880752798	0.1843548293732155	88.83270179465758	0	0.9399999999999999	0	43.89730740674567	-10.17202536809991	0	60.02358154641809	1.047609126824305	-5.034599611376008	0	0	43.89730740674567	-10.17202536809991	0	60.02358154641809	1.047609126824305	-5.034599611376008	0	0	-1.139012073714241	-2.060844802691023	1.521517778837628	0	-13.40208107537746	0	76.26176499434963	44.95049151479181	0	0	9.921938233359018	9.674773623482805	-7.970037138164024	0.01841141750780043	44.95049151479181	0	0
51	-0.9285897889789037	0.1810949272780187	88.83499048234859	0	0.9399999999999999	0	43.90220464428708	-10.17011714071579	0	60.02347896987125	1.047607336525828	-5.034133852185	0	0	43.90220464428708	-10.17011714071579	0	60.02347896987125	1.047607336525828	-5.034133852185	0	0	-1.136760188158592	-2.062939842589518	1.516741523333806	0	-13.40635349887417	0	76.25616191204625	44.95095471415458	0	0	6.400207169143445	8.10153092575217	-5.590172445426973	0.02448460653186273	44.95095471415458	0	0
52	-0.9251312170575861	0.1785780435091154	88.81592517510322	0	0.9399999999999999	0	43.90585366740083	-10.1687039043837	0	60.02340315472489	1.047606013301901	-5.033790320807598	0	0	43.90585366740083	-10.1687039043837	0	60.02340315472489	1.047606013301901	-5.033790320807598	0	0	-0.4465486786424175	-1.751792672625541	1.850778453912395	0	-13.40953308239545	0	76.25198694992216	44.95129864189896	0	0	2.938183417147347	5.053084812698027	-4.602811647882237	0.03200918134010294	44.95129864189896	0	0
53	-0.3745154454158552	0.5517821544822773	89.72300280342672	0	0.9399999999999999	0	43.90824638095859	-10.16775969405765	0	60.0233536445428	1.04760514918621	-5.0335592988321	0	0	43.90824638095859	-10.16775969405765	0	60.0233536445428	1.04760514918621	-5.0335592988321	0	0	-0.8553406502472104	-1.192463819880781	0.9684764090198389	0	-13.4116080569881	0	76.24924936823754	44.95152730591553	0	0	1.398028156266758	3.548875561741291	-3.092134824896049	0.05777014193813802	44.95152730591553	0	0
54	-0.3779302186841467	0.5558603716973463	89.72589651808165	0	0.9399999999999999	0	43.91111304226636	-10.16665840988849	0	60.02329399562473	1.047604108116194	-5.033292265775555	0	0	43.91111304226636	-10.16665840988849	0	60.02329399562473	1.047604108116194	-5.033292265775555	0	0	-0.8516974907794143	-1.193088521525073	0.9532253072721598	0	-13.41411258686391	0	76.24596953282938	44.95179583337369	0	0	0.4871067412381777	1.525880153137354	-1.755628515569171	0.1000063663040453	44.95179583337369	0	0
55	-0.9288055015901336	0.1816528657726237	88.83775737053293	0	0.9399999999999999	0	43.91142614946116	-10.16649093590772	0	60.02328877264432	1.047604016957989	-5.033248622459653	0	0	43.91142614946116	-10.16649093590772	0	60.02328877264432	1.047604016957989	-5.033248622459653	0	0	-0.4483545675133105	-1.75618709403466	1.842740334906482	0	-13.41434599336466	0	76.24561128602413	44.9518341473679	0	0	-0.3313562861072779	0.5180480181931595	-1.775535336205645	0.23651876247788	44.9518341473679	0	0
56	-0.9234606694748709	0.1848657110640925	88.83328172763626	0	0.9399999999999999	0	43.91171661322848	-10.16633545974774	0	60.02328393278741	1.047603932486551	-5.033208106961411	0	0	43.91171661322848	-10.16633545974774	0	60.02328393278741	1.047603932486551	-5.033208106961411	0	0	-0.4605696278684898	-1.746835843292835	1.843435810396346	0	-13.41456236780678	0	76.24527894703938	44.95186971501575	0	0	-0.9104925428582674	-0.5742362795452505	-0.9685379036577361	0.5485206651705067	44.95186971501575	0	0
57	-0.3782827076303101	0.5607681122089481	89.72173986577396	0	0.9399999999999999	0	43.91202906546397	-10.16617203386408	0	60.02327863048763	1.047603839943962	-5.033165711478232	0	0	43.91202906546397	-10.16617203386408	0	60.02327863048763	1.047603839943962	-5.033165711478232	0	0	-0.8523620504596257	-1.202764206363151	0.9600770022414743	0	-13.41479820689306	0	76.24492145045568	44.95190725493681	0	0	-1.0279503775296	-1.039535190354731	-0.6099093274130922	0.6808331997141767	44.95190725493681	0	0
58	-0.360434546953462	0.5505510058710054	89.7221308653868	0	0.9399999999999999	0	43.91223764461633	-10.1660606368959	0	60.02327515198229	1.047603779232591	-5.033136703644735	0	0	43.91223764461633	-10.1660606368959	0	60.02327515198229	1.047603779232591	-5.033136703644735	0	0	-0.849481909225112	-1.162220682010133	0.9636285587989682	0	-13.41495370763469	0	76.24468280117206	44.95193275256968	0	0	-1.137238708595039	-1.690161017603097	-0.759752562069257	0.3756147999496645	44.95193275256968	0	0
59	-0.9323475376803479	0.1864939263082739	88.82828186636392	0	0.9399999999999999	0	43.91251697004957	-10.16591193704061	0	60.02327048309299	1.0476036977451	-5.033098010542689	0	0	43.91251697004957	-10.16591193704061	0	60.02327048309299	1.0476036977451	-5.033098010542689	0	0	-0.4653556261842566	-1.74974595551599	1.849073584711821	0	-13.41516230330262	0	76.24436320646788	44.95196680970101	0	0	-1.918689472113109	-1.926656015683579	-0.1214327061400664	0.7678447793201438	44.95196680970101	0	0
60	-0.925518142485445	0.1932759066902122	88.83275828194651	0	0.9399999999999999	0	43.91281899574506	-10.16575043105138	0	60.0232654560613	1.047603610006846	-5.033055957221924	0	0	43.91281899574506	-10.16575043105138	0	60.0232654560613	1.047603610006846	-5.033055957221924	0	0	-0.4658774885207874	-1.745095109425315	1.848403307233331	0	-13.41538719262329	0	76.24401763871714	44.95200377440193	0	0	-1.90107317531127	-1.808472156363652	0.1767390028299688	1.324956917518905	44.95200377440193	0	0
61	-0.9304298271144298	0.1613648841719278	88.83319795172601	0	0.9399999999999999	0	43.91307494661728	-10.16561433963259	0	60.02326117816168	1.047603535343412	-5.033020565167466	0	0	43.91307494661728	-10.16561433963259	0	60.02326117816168	1.047603535343412	-5.033020565167466	0	0	-0.410760546307536	-1.757539211460574	1.843718976297405	0	-13.4155783581966	0	76.24372478841765	44.95203495573058	0	0	-1.252627660887991	-1.718965420518363	0.2340112125756374	0.7218929961568377	44.95203495573058	0	0
62	-0.3851925754848494	0.5498588775264087	89.72406403843698	0	0.9399999999999999	0	43.91335058950403	-10.1654689450264	0	60.02325654367668	1.04760345445639	-5.032982817534146	0	0	43.91335058950403	-10.1654689450264	0	60.02325654367668	1.04760345445639	-5.032982817534146	0	0	-0.8362775898119785	-1.202559566975488	0.9733225184329299	0	-13.41578512486428	0	76.24340940744227	44.95206831812807	0	0	-1.228623885363685	-1.341021426371022	0.6962880422039801	0.6450596937096587	44.95206831812807	0	0
63	-0.9235599399503652	0.1683428627073488	88.83250616152182	0	0.9399999999999999	0	43.91369295899727	-10.16529008158059	0	60.02325074375696	1.047603353228694	-5.032936468649845	0	0	43.91369295899727	-10.16529008158059	0	60.02325074375696	1.047603353228694	-5.032936468649845	0	0	-0.4468997331604533	-1.746821624518998	1.84912342436819	0	-13.41604335541027	0	76.24301768061328	44.95210943069734	0	0	-1.103218194662126	-0.887756028267532	0.3269283327389411	0.4950011382449553	44.95210943069734	0	0
